<svg aria-hidden="true" style="position:absolute;width:0;height:0" xmlns="http://www.w3.org/2000/svg" overflow="hidden">version="1.1" xmlns="http://www.w3.org/2000/svg" xmlns:xlink="http://www.w3.org/1999/xlink">
<defs>
<symbol id="close">
<path d="M1.286 25a1.286 1.286 0 01-.909-2.196L22.804.377a1.286 1.286 0 111.82 1.819L2.195 24.623a1.29 1.29 0 01-.91.377z"/>
 <path d="M23.715 25c-.33 0-.659-.125-.91-.377L.378 2.196A1.286 1.286 0 012.196.376l22.427 22.428A1.286 1.286 0 0123.715 25z"/>
</symbol>
<symbol id="icon-envelop" viewBox="0 0 32 32">
<path style="" d="M27.333 17.333c-0.736 0-1.333 0.597-1.333 1.333v0 5.333c0 0.736-0.597 1.333-1.333 1.333v0h-18.667c-0.736 0-1.333-0.597-1.333-1.333v0-12.787l7.84 7.853c0.722 0.716 1.716 1.159 2.813 1.16h0c0.003 0 0.007 0 0.010 0 1.119 0 2.13-0.459 2.856-1.199l0.001-0.001 1.187-1.173c0.154-0.214 0.246-0.482 0.246-0.771 0-0.736-0.597-1.333-1.333-1.333-0.293 0-0.563 0.094-0.783 0.254l0.004-0.003-1.24 1.213c-0.24 0.236-0.57 0.381-0.933 0.381s-0.693-0.145-0.934-0.381l0 0-7.853-7.88h6.12c0.736 0 1.333-0.597 1.333-1.333s-0.597-1.333-1.333-1.333v0h-6.667c-2.209 0-4 1.791-4 4v0 13.333c0 2.209 1.791 4 4 4v0h18.667c2.209 0 4-1.791 4-4v0-5.333c0-0.736-0.597-1.333-1.333-1.333v0zM28.733 5.333c-0.797-0.769-1.884-1.244-3.082-1.244-0.766 0-1.486 0.194-2.115 0.535l0.023-0.012c-0.602-0.338-1.322-0.536-2.088-0.536-2.393 0-4.333 1.94-4.333 4.333 0 1.186 0.477 2.261 1.249 3.043l-0-0 4.28 4.16c0.246 0.235 0.579 0.381 0.946 0.387h0.001c0.002 0 0.005 0 0.008 0 0.366 0 0.698-0.148 0.939-0.387l4.227-4.227c0.743-0.778 1.2-1.835 1.2-2.999 0-1.191-0.479-2.27-1.254-3.055l0 0zM26.853 9.493l-3.293 3.293-3.28-3.293c-0.297-0.302-0.48-0.716-0.48-1.173 0-0.924 0.749-1.674 1.674-1.674 0.467 0 0.89 0.191 1.193 0.5l0 0c0.242 0.244 0.577 0.394 0.947 0.394s0.705-0.151 0.947-0.394l0-0c0.305-0.289 0.718-0.467 1.173-0.467s0.868 0.178 1.174 0.468l-0.001-0.001c0.28 0.299 0.452 0.703 0.452 1.146 0 0.47-0.193 0.895-0.505 1.2l-0 0z"></path>
</symbol>
<symbol id="icon-github" viewBox="0 0 32 32">
<path stroke-linejoin="round" stroke-linecap="round" stroke-miterlimit="4" stroke-width="1.3333" d="M15.659 18.667c-8.805-1.333-8.128-7.333-5.419-9.333-0.535-0.811-1.355-4-0.677-5.333 1.355 0.667 3.173 1.653 4.064 2.667 2.709-1.333 6.773-1.333 8.807 0 0.535-1.081 2.496-2.103 3.387-2.667 0.803 0.811 0.223 3.981 0 5.333 1.337 2.929 2.032 7.333-5.419 9.333 1.101 0.892 2.875 3.020 4.107 5.453 0.875 1.723-0.796 3.307-2.699 2.971-1.328-0.236-2.803-0.424-4.117-0.424-1.592 0-3.7 0.276-5.524 0.577-1.885 0.311-3.412-1.315-2.444-2.963 0.703-1.197 1.587-2.317 2.548-2.948-0.333-0.451-1.659-1.748-4.064-0.667-3.008 1.352-4.733-1.643-4.065-3.333"></path>
</symbol>
<symbol id="icon-linkedin" viewBox="0 0 32 32">
<path stroke-linejoin="round" stroke-linecap="round" stroke-miterlimit="4" stroke-width="1.3333" d="M4.668 9.208c-1.501-1.583-0.347-3.928 2.195-3.875s3.293 2.836 2.253 4.909c-0.832 1.66-3.312 2.22-4.449 2.293v14.131h7.565v-14.731h4.968v2.4c3.467-4.092 10.8-2.836 10.8 3v9.331h-5.197v-7.311c0-3.328-1.501-4.011-3.205-3.328-1.704 0.681-2.397 1.909-2.397 4.419v6.22"></path>
</symbol>
<symbol id="icon-location" viewBox="0 0 32 32">
<path d="M18.568 22.319l4.781-7.688c0.016-0.025 0.029-0.051 0.039-0.078 0.791-1.267 1.26-2.806 1.261-4.454v-0c0-4.71-3.832-8.543-8.543-8.543s-8.543 3.832-8.543 8.543c0 1.57 0.437 3.109 1.263 4.456 0.010 0.024 0.021 0.047 0.034 0.069l4.609 7.714c-3.578 0.506-5.931 1.977-5.931 3.762 0 2.211 3.758 3.943 8.555 3.943s8.555-1.732 8.555-3.943c0-1.793-2.462-3.297-6.081-3.781zM9.685 14.124c-0.73-1.141-1.164-2.533-1.165-4.025v-0c0-4.183 3.403-7.586 7.586-7.586s7.586 3.403 7.586 7.586c0 1.421-0.403 2.813-1.165 4.026-0.016 0.025-0.029 0.052-0.040 0.079l-5.051 8.121c-0.076 0.116-0.091 0.143-0.184 0.295l-1.276 2.051-6.251-10.46c-0.013-0.033-0.027-0.061-0.044-0.088l0.001 0.002zM16.094 29.086c-4.478 0-7.599-1.574-7.599-2.987 0-1.282 2.35-2.49 5.511-2.864l1.553 2.599c0.086 0.143 0.239 0.232 0.406 0.233h0.004c0.165 0 0.319-0.085 0.406-0.226l1.633-2.625c3.211 0.348 5.683 1.586 5.683 2.883 0 1.413-3.12 2.987-7.598 2.987z"></path>
<path d="M19.201 10.099c0-1.713-1.393-3.106-3.106-3.106s-3.106 1.394-3.106 3.106 1.393 3.106 3.106 3.106c1.713 0 3.106-1.393 3.106-3.106zM13.945 10.099c0-1.185 0.964-2.15 2.15-2.15s2.15 0.964 2.15 2.15-0.964 2.15-2.15 2.15-2.15-0.964-2.15-2.15z"></path>
</symbol>
<symbol id="icon-triangle" viewBox="0 0 32 32">
<path fill="#939393" style="fill: var(--color1, #939393)" d="M16 25.846l-15.988-18.462h31.975l-15.988 18.462z"></path>
</symbol>
</defs>
</svg>
